# xmcd CD database file
#
# Track frame offsets:
#	150
#	23734
#	45844
#	63011
#	83078
#	103347
#	127449
#	146244
#	166821
#	188883
#
# Disc length: 2736 seconds
#
# Revision: 0
# Processed by: cddbd v1.5.1PL0 Copyright (c) Steve Scherf et al.
# Submitted via: CDex 1.51
#
DISCID=850aae0a
DTITLE=Billy Joel - Storm Front
DYEAR=1989
DGENRE=Rock
TTITLE0=That's Not Her Style
TTITLE1=We Didn't Start the Fire
TTITLE2=The Downeaster "Alexa"
TTITLE3=I Go to Extremes
TTITLE4=Shameless
TTITLE5=Storm Front
TTITLE6=Leningrad
TTITLE7=State of Grace
TTITLE8=When in Rome
TTITLE9=And So It Goes
EXTD=YEAR: 1989
EXTT0=
EXTT1=
EXTT2=
EXTT3=
EXTT4=
EXTT5=
EXTT6=
EXTT7=
EXTT8=
EXTT9=
PLAYORDER=
